<svg width="21" height="21" viewBox="0 0 21 21" fill="none" xmlns="http://www.w3.org/2000/svg">
<path d="M10.5175 2.54626C7.62125 2.54626 5.2675 4.90001 5.2675 7.79626V10.325C5.2675 10.8588 5.04 11.6725 4.76875 12.1275L3.7625 13.7988C3.14125 14.8313 3.57 15.9775 4.7075 16.3625C8.47875 17.6225 12.5475 17.6225 16.3188 16.3625C17.3775 16.0125 17.8413 14.7613 17.2638 13.7988L16.2575 12.1275C15.995 11.6725 15.7675 10.8588 15.7675 10.325V7.79626C15.7675 4.90876 13.405 2.54626 10.5175 2.54626Z" stroke="#292D32" stroke-width="1.5" stroke-miterlimit="10" stroke-linecap="round"/>
<path d="M12.1362 2.80001C11.865 2.72126 11.585 2.66001 11.2962 2.62501C10.4562 2.52001 9.65125 2.58126 8.89875 2.80001C9.1525 2.15251 9.7825 1.69751 10.5175 1.69751C11.2525 1.69751 11.8825 2.15251 12.1362 2.80001Z" stroke="#292D32" stroke-width="1.5" stroke-miterlimit="10" stroke-linecap="round" stroke-linejoin="round"/>
<path d="M13.1425 16.6775C13.1425 18.1212 11.9613 19.3025 10.5175 19.3025C9.8 19.3025 9.135 19.005 8.6625 18.5325C8.19 18.06 7.8925 17.395 7.8925 16.6775" stroke="#292D32" stroke-width="1.5" stroke-miterlimit="10"/>
</svg>
