<svg width="19" height="19" viewBox="0 0 19 19" fill="none" xmlns="http://www.w3.org/2000/svg">
<path d="M9.5 11.875C10.8117 11.875 11.875 10.8117 11.875 9.5C11.875 8.18832 10.8117 7.125 9.5 7.125C8.18832 7.125 7.125 8.18832 7.125 9.5C7.125 10.8117 8.18832 11.875 9.5 11.875Z" stroke="#5256E8" stroke-width="1.2" stroke-miterlimit="10" stroke-linecap="round" stroke-linejoin="round"/>
<path d="M1.58334 10.1967V8.80338C1.58334 7.98005 2.25626 7.29922 3.08751 7.29922C4.52043 7.29922 5.10626 6.28588 4.38584 5.04297C3.97418 4.33047 4.21959 3.40422 4.94001 2.99255L6.30959 2.2088C6.93501 1.83672 7.74251 2.05838 8.11459 2.6838L8.20168 2.83422C8.91418 4.07713 10.0858 4.07713 10.8063 2.83422L10.8933 2.6838C11.2654 2.05838 12.0729 1.83672 12.6983 2.2088L14.0679 2.99255C14.7883 3.40422 15.0338 4.33047 14.6221 5.04297C13.9017 6.28588 14.4875 7.29922 15.9204 7.29922C16.7438 7.29922 17.4246 7.97213 17.4246 8.80338V10.1967C17.4246 11.0201 16.7517 11.7009 15.9204 11.7009C14.4875 11.7009 13.9017 12.7142 14.6221 13.9571C15.0338 14.6776 14.7883 15.5959 14.0679 16.0076L12.6983 16.7913C12.0729 17.1634 11.2654 16.9417 10.8933 16.3163L10.8063 16.1659C10.0938 14.923 8.92209 14.923 8.20168 16.1659L8.11459 16.3163C7.74251 16.9417 6.93501 17.1634 6.30959 16.7913L4.94001 16.0076C4.21959 15.5959 3.97418 14.6696 4.38584 13.9571C5.10626 12.7142 4.52043 11.7009 3.08751 11.7009C2.25626 11.7009 1.58334 11.0201 1.58334 10.1967Z" stroke="#5256E8" stroke-width="1.2" stroke-miterlimit="10" stroke-linecap="round" stroke-linejoin="round"/>
</svg>
